<svg
    id="Layer_1"
    data-name="Layer 1"
    xmlns="http://www.w3.org/2000/svg"
    viewBox="0 0 134.34 184.48"
><defs><style>.cls-1{fill:#5ac5c5;}</style></defs><path
        class="cls-1"
        d="M59.76,61.89C62,64,58.3,90.26,86.41,90.26c27.32,0,31.43-16,31.43-16-11.8,1.33-14.19-8.75-14.19-8.75,33.68,10.47,34-38.16,12.73-45.88-16-5.83-13.66,10.35-20.16,17.51s-8,1.85-16.92,2.51c-8.34.63-11.93,4.56-14.37,1.73-8-9.34,2-10.07,7.16-20.55C76.2,12.43,53.53.9,42.39,17.6c-15,22.45,19.89,34.74,19.89,34.74-30.1-10.47-66.16,17-48.92,33.55C33,104.79,55.25,60.3,59.76,61.89Zm22-11.71a6,6,0,1,1-6,6A6,6,0,0,1,81.74,50.18Z"
        transform="translate(-8.88 -9.07)"
    /><path
        class="cls-1"
        d="M131.27,116.47c9.66,1.57,19.63-25.81,3.18-30.94-9.15-2.85-18.85,4.17-29.33,9.5a16.83,16.83,0,0,1,6.18,7.8,6.89,6.89,0,1,1-13.11,4.22,17,17,0,0,1,.18-9c-5.69,2.16-11.62,3.18-17.8,1.37a5.11,5.11,0,0,0-6.62,5.2c2.16,30.14-5.32,63.64-19.76,63.64-4.95,0-11.49-6.17-11.49-13.44,0-14.32,14-14.85,18.21-11.31C50.3,129.38,25.2,141,25.2,163.85c0,15.2,11.32,29.7,31.29,29.7h76.73c0-16.79-18.57-22.45-18.57-22.45s14.15-23,4.42-46c-8.89-21,8.49-21.74,8.49-21.74S123.67,115.23,131.27,116.47Z"
        transform="translate(-8.88 -9.07)"
    /></svg>
