<svg
    width="1024"
    height="1024"
    viewBox="0 0 1024 1024"
    fill="none"
    xmlns="http://www.w3.org/2000/svg"
>
<rect width="1024" height="1024" rx="181" fill="#D9D9D9" />
<path
        d="M237.724 590.34C221.511 590.34 206.663 586.415 193.18 578.564L193.948 547.332H214.428L218.78 572.676C221.852 573.871 224.924 574.809 227.996 575.492C231.068 576.004 234.396 576.26 237.98 576.26C245.319 576.26 250.951 575.065 254.876 572.676C258.801 570.116 260.764 566.276 260.764 561.156C260.764 557.231 259.313 553.817 256.412 550.916C253.511 548.015 247.793 545.369 239.26 542.98L225.436 538.884C215.537 535.983 207.857 531.289 202.396 524.804C197.105 518.319 194.46 510.297 194.46 500.74C194.46 488.964 199.068 479.065 208.284 471.044C217.5 462.852 230.727 458.756 247.964 458.756C255.473 458.756 262.385 459.695 268.7 461.572C275.185 463.279 281.756 465.839 288.412 469.252L286.62 497.156H266.14L261.02 475.14C257.436 473.775 252.743 473.092 246.94 473.092C241.137 473.092 236.444 474.287 232.86 476.676C229.447 479.065 227.74 482.649 227.74 487.428C227.74 490.841 229.105 493.913 231.836 496.644C234.567 499.204 240.369 501.849 249.244 504.58L261.788 508.164C273.905 511.748 282.609 516.868 287.9 523.524C293.191 530.18 295.836 538.287 295.836 547.844C295.836 561.327 290.631 571.823 280.22 579.332C269.98 586.671 255.815 590.34 237.724 590.34ZM306.924 644.612V632.58L321.26 629.508C321.431 621.487 321.516 613.977 321.516 606.98C321.687 600.153 321.772 593.583 321.772 587.268V517.892C321.772 510.895 321.687 505.519 321.516 501.764C321.516 497.839 321.345 493.316 321.004 488.196L305.132 485.892V475.908L355.308 458.756L359.66 461.316L360.684 475.652C371.436 464.388 384.065 458.756 398.572 458.756C407.959 458.756 416.407 461.231 423.916 466.18C431.425 471.129 437.399 478.468 441.836 488.196C446.444 497.924 448.748 509.871 448.748 524.036C448.748 537.689 446.188 549.551 441.068 559.62C435.948 569.519 429.207 577.113 420.844 582.404C412.652 587.695 403.692 590.34 393.964 590.34C380.823 590.34 370.071 585.903 361.708 577.028V587.012C361.708 593.327 361.708 599.897 361.708 606.724C361.879 613.551 362.049 620.889 362.22 628.74L378.604 632.58V644.612H306.924ZM379.884 481.028C376.641 481.028 373.569 481.711 370.668 483.076C367.937 484.441 365.207 486.148 362.476 488.196V562.436C367.596 566.703 373.143 568.836 379.116 568.836C386.796 568.836 393.025 565.252 397.804 558.084C402.753 550.916 405.228 539.737 405.228 524.548C405.228 509.359 402.839 498.351 398.06 491.524C393.452 484.527 387.393 481.028 379.884 481.028ZM560.49 590.084C545.642 590.084 536.255 583.94 532.33 571.652C526.869 577.455 521.578 582.063 516.458 585.476C511.509 588.719 504.597 590.34 495.722 590.34C485.823 590.34 477.717 587.524 471.402 581.892C465.258 576.26 462.186 568.153 462.186 557.572C462.186 551.428 463.551 545.881 466.282 540.932C469.013 535.983 473.962 531.375 481.13 527.108C488.298 522.841 498.453 518.831 511.594 515.076C514.154 514.223 517.141 513.369 520.554 512.516C523.967 511.663 527.466 510.809 531.05 509.956V501.508C531.05 490.073 529.599 482.308 526.698 478.212C523.967 474.116 518.506 472.068 510.314 472.068C509.119 472.068 508.01 472.068 506.986 472.068C505.962 472.068 504.767 472.153 503.402 472.324L502.122 483.588C501.951 491.951 499.989 498.009 496.234 501.764C492.65 505.519 488.383 507.396 483.434 507.396C474.047 507.396 468.33 503.129 466.282 494.596C466.965 484.015 472.341 475.396 482.41 468.74C492.479 462.084 506.73 458.756 525.162 458.756C541.546 458.756 553.237 462.511 560.234 470.02C567.402 477.529 570.986 489.903 570.986 507.14V564.484C570.986 569.433 572.863 571.908 576.618 571.908C577.983 571.908 579.263 571.567 580.458 570.884C581.653 570.031 582.933 568.495 584.298 566.276L591.21 570.884C588.138 577.711 584.127 582.66 579.178 585.732C574.399 588.633 568.17 590.084 560.49 590.084ZM500.074 550.916C500.074 557.231 501.525 561.924 504.426 564.996C507.498 568.068 511.167 569.604 515.434 569.604C517.311 569.604 519.274 569.177 521.322 568.324C523.37 567.471 526.613 565.508 531.05 562.436V520.964C528.831 521.647 526.613 522.415 524.394 523.268C522.346 523.951 520.554 524.633 519.018 525.316C513.215 527.705 508.607 531.119 505.194 535.556C501.781 539.823 500.074 544.943 500.074 550.916ZM597.162 586.5V574.468L611.242 571.652C611.413 565.337 611.498 558.596 611.498 551.428C611.498 544.26 611.498 538.031 611.498 532.74V517.636C611.498 512.857 611.413 508.932 611.242 505.86C611.242 502.788 611.157 499.972 610.986 497.412C610.986 494.681 610.901 491.609 610.73 488.196L595.114 485.892V475.908L645.546 458.756L650.154 461.572L652.458 491.78C656.042 480.857 661.077 472.665 667.562 467.204C674.047 461.572 680.447 458.756 686.762 458.756C692.394 458.756 697.258 460.377 701.354 463.62C705.45 466.692 708.01 471.385 709.034 477.7C708.863 484.356 707.071 489.561 703.658 493.316C700.245 496.9 695.978 498.692 690.858 498.692C683.69 498.692 677.119 494.681 671.146 486.66L669.61 484.612C665.855 488.196 662.357 492.719 659.114 498.18C656.042 503.641 653.823 509.359 652.458 515.332V532.74C652.458 538.031 652.458 544.089 652.458 550.916C652.458 557.743 652.543 564.143 652.714 570.116L672.938 574.468V586.5H597.162ZM775.656 472.068C770.877 472.068 766.44 475.055 762.344 481.028C758.419 486.831 756.2 497.583 755.688 513.284H777.448C783.592 513.284 787.688 512.089 789.736 509.7C791.955 507.14 793.064 502.959 793.064 497.156C793.064 488.623 791.357 482.308 787.944 478.212C784.531 474.116 780.435 472.068 775.656 472.068ZM776.168 590.34C763.709 590.34 752.701 587.78 743.144 582.66C733.587 577.369 726.077 569.86 720.616 560.132C715.155 550.233 712.424 538.457 712.424 524.804C712.424 510.468 715.581 498.436 721.896 488.708C728.381 478.809 736.659 471.385 746.728 466.436C756.797 461.316 767.293 458.756 778.216 458.756C789.48 458.756 799.037 461.145 806.888 465.924C814.909 470.703 820.968 477.188 825.064 485.38C829.16 493.401 831.208 502.617 831.208 513.028C831.208 517.977 830.696 522.5 829.672 526.596H755.688C756.541 540.079 760.211 550.063 766.696 556.548C773.352 562.863 781.117 566.02 789.992 566.02C796.989 566.02 802.963 564.74 807.912 562.18C812.861 559.449 817.213 556.121 820.968 552.196L829.928 560.388C824.637 570.457 817.469 577.967 808.424 582.916C799.379 587.865 788.627 590.34 776.168 590.34Z"
        fill="#1E1E1E"
    />
</svg>
